# xmcd
#
# Track frame offsets:
#	150
#	17183
#	30482
#	43371
#	56377
#	67861
#	84647
#	94409
#	106533
#	119334
#	134876
#	148154
#	159236
#	182968
#	197336
#	214307
#	225397
#	244374
#	259727
#	272963
#
# Disc length: 3795 seconds
#
# Revision: 0
# Processed by: cddbd v1.5.2PL0 Copyright (c) Steve Scherf et al.
# Submitted via: dBpowerAMP V4.0
#
DISCID=250ed114
DTITLE=Carter Brothers - Blues on Tour 65-69 CD2
DYEAR=1900
DGENRE=
TTITLE0=Carters pills (inst.) (take 1)
TTITLE1=Sucker of circumstances
TTITLE2=Wonderful girl
TTITLE3=Anything for you baby
TTITLE4=Get it together
TTITLE5=Wrong number
TTITLE6=You just dont know
TTITLE7=Just consider yourself baby
TTITLE8=I feel alright
TTITLE9=I woke up smilin
TTITLE10=Hey its alright
TTITLE11=Cheatin woman
TTITLE12=Blues Brothers (inst.)
TTITLE13=Booze in the bottle (overdub take 1)
TTITLE14=Booby Trap Baby (take 1)
TTITLE15=Stop talking in your sleep (take 2)
TTITLE16=Booby Trap Baby (take 2)
TTITLE17=shes so fine so glad shes mine (take 1)
TTITLE18=Southern country boy (take unknown)
TTITLE19=Cheatin woman (take unknown)
EXTD=*fart*
EXTT0=
EXTT1=
EXTT2=
EXTT3=
EXTT4=
EXTT5=
EXTT6=
EXTT7=
EXTT8=
EXTT9=
EXTT10=
EXTT11=
EXTT12=
EXTT13=
EXTT14=
EXTT15=
EXTT16=
EXTT17=
EXTT18=
EXTT19=
PLAYORDER=
